<svg xmlns="http://www.w3.org/2000/svg" data-name="Layer 2" viewBox="0 0 48 48" id="Connection"><path d="m32.06 28.52-3.26-2.74a5 5 0 0 0 .32-1.78 5.13 5.13 0 0 0-.73-2.64l4.15-4.16a3.84 3.84 0 1 0-1.79-1.83l-4.19 4.2a5.11 5.11 0 0 0-5.11 0l-2-1.93a5.12 5.12 0 1 0-1.81 1.82l2 1.9a5.1 5.1 0 0 0-.05 5.21l-2 2a5.11 5.11 0 1 0 1.83 1.79l1.93-1.93a5.15 5.15 0 0 0 2.64.73 5.08 5.08 0 0 0 3.33-1.23l3.23 2.7a3.83 3.83 0 1 0 1.5-2.07Zm2.18-16A1.28 1.28 0 1 1 33 13.76a1.28 1.28 0 0 1 1.24-1.28ZM15 17.6a2.56 2.56 0 1 1 2.6-2.6 2.56 2.56 0 0 1-2.6 2.6Zm0 17.92A2.56 2.56 0 1 1 17.6 33a2.56 2.56 0 0 1-2.6 2.52Zm9-9A2.56 2.56 0 1 1 26.56 24 2.56 2.56 0 0 1 24 26.56ZM34.24 33a1.28 1.28 0 1 1 1.28-1.28A1.28 1.28 0 0 1 34.24 33Z" fill="#ffffff" class="color000000 svgShape"></path></svg>