<svg xmlns="http://www.w3.org/2000/svg" width="24" height="24" fill="none" viewBox="0 0 24 24" id="edit"><path fill="#3747D6" d="M4 3C2.34315 3 1 4.34315 1 6V20C1 21.6569 2.34315 23 4 23H18C19.6569 23 21 21.6569 21 20V6C21 4.34315 19.6569 3 18 3H4Z"></path><path fill="#90CAEA" d="M20.7071 1.29289C20.3166 0.902369 19.6834 0.902369 19.2929 1.29289L11.2929 9.29289C11.1831 9.40267 11.1004 9.53649 11.0513 9.68377L10.0513 12.6838C9.93157 13.0431 10.0251 13.4393 10.2929 13.7071C10.5608 13.9749 10.9569 14.0685 11.3163 13.9487L14.3163 12.9487C14.4635 12.8996 14.5974 12.8169 14.7071 12.7071L22.7071 4.70711C23.0977 4.31658 23.0977 3.68342 22.7071 3.29289L20.7071 1.29289Z"></path></svg>