<svg xmlns="http://www.w3.org/2000/svg" viewBox="0 0 512 512" id="facebook"><linearGradient id="a" x1="250.386" x2="250.386" y1="146.542" y2="320.218" gradientUnits="userSpaceOnUse"><stop offset="0" stop-color="#ea8928"></stop><stop offset="1" stop-color="#cf2b8f"></stop></linearGradient><path fill="url(#a)" d="M314.1 99.6h-33.4c-25.6 0-43.9 6.1-55.1 18.2-11.2 12.1-16.7 30-16.7 53.6v22.5c0 5.9-4.8 10.8-10.8 10.8h-11.5c-5.9 0-10.8 4.8-10.8 10.8v33.7c0 5.9 4.8 10.8 10.8 10.8h11.5c5.9 0 10.8 4.8 10.8 10.8v138.8c0 5.9 4.8 10.8 10.8 10.8h44.8c5.9 0 10.8-4.8 10.8-10.8V270.7c0-5.9 4.8-10.8 10.8-10.8h22.6c5.9 0 11.3-4.8 11.9-10.7l3.6-33.8c.6-5.9-3.7-10.7-9.6-10.7h-28.5c-5.9 0-10.8-4.8-10.8-10.8V177c0-4.1.2-7.4.6-9.6.4-2.3 1.3-4.5 2.6-6.7 1.4-2.2 3.6-3.7 6.6-4.6 3-.8 7.1-1.3 12.2-1.3h16.9c5.9 0 10.8-4.8 10.8-10.8v-33.7c-.1-5.9-4.9-10.7-10.9-10.7z"></path></svg>