<svg xmlns="http://www.w3.org/2000/svg" viewBox="0 0 24 24" id="phone"><path fill="#485994" d="M19.556 14.815a10.22 10.22 0 0 1-3.21-.511c-.511-.175-1.256.131-1.427.3-.463.46-1.776 1.772-1.776 1.772a13.413 13.413 0 0 1-5.51-5.527S8.897 9.575 9.35 9.133c.286-.28.523-.946.358-1.474a10.235 10.235 0 0 1-.514-3.215C9.194 3.648 8.546 3 7.75 3H4.444C3.648 3 3 3.648 3 4.444 3 13.574 10.427 21 19.556 21c.796 0 1.444-.648 1.444-1.444v-3.297c0-.796-.648-1.444-1.444-1.444z" class="color68b345 svgShape"></path><path fill="#ffffff" d="M19.556 14.815a10.22 10.22 0 0 1-3.21-.511c-.487-.167-1.03-.046-1.453.322l-3.952 3.952.012.006 3.795-3.708c.433-.368.99-.49 1.488-.322 1.05.339 2.157.51 3.285.51.816 0 1.479.649 1.479 1.445v-.25c0-.796-.648-1.444-1.444-1.444z" opacity=".2" class="colorffffff svgShape"></path><linearGradient id="a" x1="6.662" x2="11.031" y1="12.403" y2="16.772" gradientUnits="userSpaceOnUse"><stop offset="0" stop-color="#010101" stop-opacity=".1" class="stopColor010101 svgShape"></stop><stop offset="1" stop-color="#010101" stop-opacity="0" class="stopColor010101 svgShape"></stop></linearGradient><path fill="url(#a)" d="M13.143 16.376a13.413 13.413 0 0 1-5.51-5.527l-2.197 2.196a16.652 16.652 0 0 0 5.52 5.519l2.187-2.188z"></path><path fill="#ffffff" d="M9.194 4.444C9.194 3.648 8.546 3 7.75 3H4.444C3.648 3 3 3.648 3 4.444c0 .063.006.125.006.187A1.443 1.443 0 0 1 4.444 3.25H7.75c.796 0 1.444.648 1.444 1.444" opacity=".2" class="colorffffff svgShape"></path><path fill="#010101" d="M19.626 20.75A16.736 16.736 0 0 1 3.71 9.243c.214.71.474 1.378.778 2.045C7.097 17.011 12.867 21 19.556 21c.682 0 1.252-.477 1.402-1.114a1.459 1.459 0 0 1-1.332.864z" opacity=".1" class="color010101 svgShape"></path><linearGradient id="b" x1="1.587" x2="22.405" y1="7.154" y2="16.862" gradientUnits="userSpaceOnUse"><stop offset="0" stop-color="#ffffff" stop-opacity=".2" class="stopColorffffff svgShape"></stop><stop offset="1" stop-color="#ffffff" stop-opacity="0" class="stopColorffffff svgShape"></stop></linearGradient><path fill="url(#b)" d="M19.556 14.815a10.22 10.22 0 0 1-3.21-.511c-.511-.175-1.256.131-1.427.3-.463.46-1.776 1.772-1.776 1.772a13.413 13.413 0 0 1-5.51-5.527S8.897 9.575 9.35 9.133c.286-.28.523-.946.358-1.474a10.235 10.235 0 0 1-.514-3.215C9.194 3.648 8.546 3 7.75 3H4.444C3.648 3 3 3.648 3 4.444 3 13.574 10.427 21 19.556 21c.796 0 1.444-.648 1.444-1.444v-3.297c0-.796-.648-1.444-1.444-1.444z"></path></svg>